<mxfile host="Electron" modified="2024-03-11T13:20:33.055Z" agent="Mozilla/5.0 (Windows NT 10.0; Win64; x64) AppleWebKit/537.36 (KHTML, like Gecko) draw.io/24.0.4 Chrome/120.0.6099.109 Electron/28.1.0 Safari/537.36" etag="-Eu9rG7TqKO2VAF7LHIK" version="24.0.4" type="device">
  <diagram name="Page-1" id="h8wskp1LuTs42Om05X5G">
    <mxGraphModel dx="683" dy="402" grid="1" gridSize="10" guides="1" tooltips="1" connect="1" arrows="1" fold="1" page="1" pageScale="1" pageWidth="850" pageHeight="1100" math="0" shadow="0">
      <root>
        <mxCell id="0" />
        <mxCell id="1" parent="0" />
        <mxCell id="SqTwolFK7DglR5Hcd5rD-49" value="" style="edgeStyle=entityRelationEdgeStyle;fontSize=12;html=1;endArrow=ERmany;startArrow=ERmany;rounded=0;" edge="1" parent="1" source="SqTwolFK7DglR5Hcd5rD-51" target="SqTwolFK7DglR5Hcd5rD-55">
          <mxGeometry width="100" height="100" relative="1" as="geometry">
            <mxPoint x="310.00000000000017" y="315.39599999999996" as="sourcePoint" />
            <mxPoint x="610.9599999999999" y="260.602" as="targetPoint" />
            <Array as="points">
              <mxPoint x="559.68" y="314.98" />
            </Array>
          </mxGeometry>
        </mxCell>
        <mxCell id="SqTwolFK7DglR5Hcd5rD-50" value="enrolls" style="edgeLabel;html=1;align=center;verticalAlign=middle;resizable=0;points=[];" vertex="1" connectable="0" parent="SqTwolFK7DglR5Hcd5rD-49">
          <mxGeometry x="-0.2146" y="-1" relative="1" as="geometry">
            <mxPoint x="16" y="-1" as="offset" />
          </mxGeometry>
        </mxCell>
        <mxCell id="SqTwolFK7DglR5Hcd5rD-51" value="student" style="swimlane;fontStyle=0;childLayout=stackLayout;horizontal=1;startSize=26;horizontalStack=0;resizeParent=1;resizeParentMax=0;resizeLast=0;collapsible=1;marginBottom=0;align=center;fontSize=14;" vertex="1" parent="1">
          <mxGeometry x="130" y="250" width="160" height="146" as="geometry" />
        </mxCell>
        <mxCell id="SqTwolFK7DglR5Hcd5rD-52" value="firstName (string)" style="text;strokeColor=none;fillColor=none;spacingLeft=4;spacingRight=4;overflow=hidden;rotatable=0;points=[[0,0.5],[1,0.5]];portConstraint=eastwest;fontSize=12;whiteSpace=wrap;html=1;" vertex="1" parent="SqTwolFK7DglR5Hcd5rD-51">
          <mxGeometry y="26" width="160" height="30" as="geometry" />
        </mxCell>
        <mxCell id="SqTwolFK7DglR5Hcd5rD-53" value="lastName (string)" style="text;strokeColor=none;fillColor=none;spacingLeft=4;spacingRight=4;overflow=hidden;rotatable=0;points=[[0,0.5],[1,0.5]];portConstraint=eastwest;fontSize=12;whiteSpace=wrap;html=1;" vertex="1" parent="SqTwolFK7DglR5Hcd5rD-51">
          <mxGeometry y="56" width="160" height="30" as="geometry" />
        </mxCell>
        <mxCell id="SqTwolFK7DglR5Hcd5rD-54" value="email (string)" style="text;strokeColor=none;fillColor=none;spacingLeft=4;spacingRight=4;overflow=hidden;rotatable=0;points=[[0,0.5],[1,0.5]];portConstraint=eastwest;fontSize=12;whiteSpace=wrap;html=1;" vertex="1" parent="SqTwolFK7DglR5Hcd5rD-51">
          <mxGeometry y="86" width="160" height="30" as="geometry" />
        </mxCell>
        <mxCell id="SqTwolFK7DglR5Hcd5rD-64" value="dateRegistered (dateTime)" style="text;strokeColor=none;fillColor=none;spacingLeft=4;spacingRight=4;overflow=hidden;rotatable=0;points=[[0,0.5],[1,0.5]];portConstraint=eastwest;fontSize=12;whiteSpace=wrap;html=1;" vertex="1" parent="SqTwolFK7DglR5Hcd5rD-51">
          <mxGeometry y="116" width="160" height="30" as="geometry" />
        </mxCell>
        <mxCell id="SqTwolFK7DglR5Hcd5rD-55" value="course" style="swimlane;fontStyle=0;childLayout=stackLayout;horizontal=1;startSize=26;horizontalStack=0;resizeParent=1;resizeParentMax=0;resizeLast=0;collapsible=1;marginBottom=0;align=center;fontSize=14;" vertex="1" parent="1">
          <mxGeometry x="570" y="250" width="160" height="146" as="geometry" />
        </mxCell>
        <mxCell id="SqTwolFK7DglR5Hcd5rD-56" value="title (string)" style="text;strokeColor=none;fillColor=none;spacingLeft=4;spacingRight=4;overflow=hidden;rotatable=0;points=[[0,0.5],[1,0.5]];portConstraint=eastwest;fontSize=12;whiteSpace=wrap;html=1;" vertex="1" parent="SqTwolFK7DglR5Hcd5rD-55">
          <mxGeometry y="26" width="160" height="30" as="geometry" />
        </mxCell>
        <mxCell id="SqTwolFK7DglR5Hcd5rD-57" value="price (int)" style="text;strokeColor=none;fillColor=none;spacingLeft=4;spacingRight=4;overflow=hidden;rotatable=0;points=[[0,0.5],[1,0.5]];portConstraint=eastwest;fontSize=12;whiteSpace=wrap;html=1;" vertex="1" parent="SqTwolFK7DglR5Hcd5rD-55">
          <mxGeometry y="56" width="160" height="30" as="geometry" />
        </mxCell>
        <mxCell id="SqTwolFK7DglR5Hcd5rD-58" value="instructur (string)" style="text;strokeColor=none;fillColor=none;spacingLeft=4;spacingRight=4;overflow=hidden;rotatable=0;points=[[0,0.5],[1,0.5]];portConstraint=eastwest;fontSize=12;whiteSpace=wrap;html=1;" vertex="1" parent="SqTwolFK7DglR5Hcd5rD-55">
          <mxGeometry y="86" width="160" height="30" as="geometry" />
        </mxCell>
        <mxCell id="SqTwolFK7DglR5Hcd5rD-59" value="tags (string)" style="text;strokeColor=none;fillColor=none;spacingLeft=4;spacingRight=4;overflow=hidden;rotatable=0;points=[[0,0.5],[1,0.5]];portConstraint=eastwest;fontSize=12;whiteSpace=wrap;html=1;" vertex="1" parent="SqTwolFK7DglR5Hcd5rD-55">
          <mxGeometry y="116" width="160" height="30" as="geometry" />
        </mxCell>
        <mxCell id="SqTwolFK7DglR5Hcd5rD-60" value="Enrollment" style="swimlane;fontStyle=0;childLayout=stackLayout;horizontal=1;startSize=26;horizontalStack=0;resizeParent=1;resizeParentMax=0;resizeLast=0;collapsible=1;marginBottom=0;align=center;fontSize=14;" vertex="1" parent="1">
          <mxGeometry x="350" y="60" width="160" height="86" as="geometry" />
        </mxCell>
        <mxCell id="SqTwolFK7DglR5Hcd5rD-61" value="date (dateTime)" style="text;strokeColor=none;fillColor=none;spacingLeft=4;spacingRight=4;overflow=hidden;rotatable=0;points=[[0,0.5],[1,0.5]];portConstraint=eastwest;fontSize=12;whiteSpace=wrap;html=1;" vertex="1" parent="SqTwolFK7DglR5Hcd5rD-60">
          <mxGeometry y="26" width="160" height="30" as="geometry" />
        </mxCell>
        <mxCell id="SqTwolFK7DglR5Hcd5rD-67" value="price (float)" style="text;strokeColor=none;fillColor=none;spacingLeft=4;spacingRight=4;overflow=hidden;rotatable=0;points=[[0,0.5],[1,0.5]];portConstraint=eastwest;fontSize=12;whiteSpace=wrap;html=1;" vertex="1" parent="SqTwolFK7DglR5Hcd5rD-60">
          <mxGeometry y="56" width="160" height="30" as="geometry" />
        </mxCell>
        <mxCell id="SqTwolFK7DglR5Hcd5rD-65" value="" style="edgeStyle=entityRelationEdgeStyle;fontSize=12;html=1;endArrow=ERoneToMany;rounded=0;entryX=-0.001;entryY=0.313;entryDx=0;entryDy=0;entryPerimeter=0;" edge="1" parent="1" source="SqTwolFK7DglR5Hcd5rD-51" target="SqTwolFK7DglR5Hcd5rD-60">
          <mxGeometry width="100" height="100" relative="1" as="geometry">
            <mxPoint x="160" y="342.61" as="sourcePoint" />
            <mxPoint x="282" y="80.002" as="targetPoint" />
          </mxGeometry>
        </mxCell>
        <mxCell id="SqTwolFK7DglR5Hcd5rD-66" value="" style="edgeStyle=entityRelationEdgeStyle;fontSize=12;html=1;endArrow=ERoneToMany;rounded=0;entryX=0.99;entryY=0.177;entryDx=0;entryDy=0;entryPerimeter=0;" edge="1" parent="1" source="SqTwolFK7DglR5Hcd5rD-55" target="SqTwolFK7DglR5Hcd5rD-60">
          <mxGeometry width="100" height="100" relative="1" as="geometry">
            <mxPoint x="650" y="323" as="sourcePoint" />
            <mxPoint x="590" y="88" as="targetPoint" />
          </mxGeometry>
        </mxCell>
      </root>
    </mxGraphModel>
  </diagram>
</mxfile>
